<?xml version="1.0" encoding="utf-8"?>
<!-- Generator: Adobe Illustrator 22.1.0, SVG Export Plug-In . SVG Version: 6.00 Build 0)  -->
<svg version="1.0" id="Layer_1" xmlns="http://www.w3.org/2000/svg" xmlns:xlink="http://www.w3.org/1999/xlink" x="0px" y="0px"
	 viewBox="0 0 128 128" style="enable-background:new 0 0 128 128;" xml:space="preserve">
<style type="text/css">
	.st0{fill:#956134;}
	.st1{fill:#231815;}
	.st2{fill:#FFFFFF;}
	.st3{fill:#1D2088;}
	.st4{fill:#E60012;}
	.st5{fill:#00A0E9;}
</style>
<g>
	<path class="st0" d="M64,120.3c-31,0-56.2-25.2-56.3-56.2c5.4,2.7,11.3,5,17.5,6.8c3.4,18.8,19.6,32.4,38.8,32.4
		S99.4,89.8,102.8,71c6.2-1.9,12.1-4.2,17.5-6.8C120.2,95.2,95,120.3,64,120.3z"/>
	<path class="st1" d="M119.8,65c-0.5,30.3-25.4,54.9-55.8,54.9S8.7,95.3,8.2,65c5.2,2.5,10.7,4.7,16.6,6.4
		c3.5,18.9,19.9,32.5,39.2,32.5s35.7-13.6,39.2-32.5C109.1,69.7,114.7,67.5,119.8,65 M120.8,63.4c-5.7,2.9-11.9,5.3-18.5,7.3
		C99.2,89,83.2,102.9,64,102.9S28.8,89,25.6,70.6c-6.6-2-12.8-4.4-18.5-7.3c0,0.2,0,0.4,0,0.6c0,31.4,25.4,56.8,56.8,56.8
		s56.8-25.4,56.8-56.8C120.8,63.8,120.8,63.6,120.8,63.4L120.8,63.4z"/>
</g>
<g>
	<path class="st2" d="M64,75.5c-13.2,0-26-1.8-37.9-5.3c-0.3-2.1-0.5-4.2-0.5-6.2c0-21.2,17.2-38.4,38.4-38.4s38.4,17.2,38.4,38.4
		c0,2.1-0.2,4.2-0.5,6.2C90,73.8,77.2,75.5,64,75.5z"/>
	<path class="st1" d="M64,26.1c20.9,0,37.9,17,37.9,37.9c0,2-0.2,3.9-0.5,5.9C89.7,73.3,77,75,64,75s-25.7-1.7-37.5-5.2
		c-0.3-1.9-0.5-3.9-0.5-5.9C26.1,43.1,43.1,26.1,64,26.1 M64,25.1c-21.5,0-38.9,17.4-38.9,38.9c0,2.3,0.2,4.5,0.6,6.6
		C37.3,74.1,50.3,76,64,76s26.7-1.9,38.4-5.4c0.4-2.2,0.6-4.4,0.6-6.6C102.9,42.5,85.5,25.1,64,25.1L64,25.1z"/>
</g>
<g>
	<path class="st3" d="M64,103.4c-19.3,0-35.6-13.8-38.9-32.7L25,69.9l0.8,0.2c12.1,3.6,24.9,5.4,38.2,5.4c13.3,0,26.2-1.8,38.2-5.4
		l0.8-0.2l-0.1,0.8C99.6,89.7,83.3,103.4,64,103.4z"/>
	<path class="st1" d="M102.4,70.6C99.2,89,83.2,102.9,64,102.9S28.8,89,25.6,70.6C37.3,74.1,50.3,76,64,76S90.7,74.1,102.4,70.6
		 M103.6,69.2l-1.5,0.5C90.1,73.2,77.3,75,64,75s-26.1-1.8-38.1-5.4l-1.5-0.5l0.3,1.6C27.9,90,44.5,103.9,64,103.9
		s36.1-13.9,39.4-33.1L103.6,69.2L103.6,69.2z"/>
</g>
<g>
	<path class="st4" d="M64,76.5c-13.4,0-26.4-1.8-38.5-5.4L25.2,71l-0.1-0.3c-0.4-2.2-0.6-4.5-0.6-6.7c0-21.7,17.7-39.4,39.4-39.4
		c21.7,0,39.4,17.7,39.4,39.4c0,2.2-0.2,4.5-0.6,6.7l-0.1,0.3l-0.3,0.1C90.4,74.7,77.4,76.5,64,76.5z"/>
	<path class="st1" d="M64,25.1c21.5,0,38.9,17.4,38.9,38.9c0,2.3-0.2,4.5-0.6,6.6C90.7,74.1,77.7,76,64,76s-26.7-1.9-38.4-5.4
		c-0.4-2.2-0.6-4.4-0.6-6.6C25.1,42.5,42.5,25.1,64,25.1 M64,24.1C42,24.1,24.1,42,24.1,64c0,2.3,0.2,4.6,0.6,6.8l0.1,0.6l0.6,0.2
		C37.5,75.2,50.5,77,64,77s26.5-1.8,38.7-5.4l0.6-0.2l0.1-0.6c0.4-2.2,0.6-4.5,0.6-6.8C103.9,42,86,24.1,64,24.1L64,24.1z"/>
</g>
<g>
	<path class="st5" d="M25,69.9c-6.1-1.9-12-4.2-17.3-6.9C8.2,32.5,33.4,7.7,64,7.7s55.8,24.8,56.3,55.4c-5.4,2.7-11.2,5-17.3,6.9
		c0.3-2,0.4-3.9,0.4-5.9c0-21.7-17.7-39.4-39.4-39.4S24.6,42.3,24.6,64C24.6,66,24.7,68,25,69.9z"/>
	<path class="st1" d="M64,8.2c14.8,0,28.8,5.7,39.3,16.2c10.4,10.3,16.2,23.9,16.5,38.4c-5,2.5-10.5,4.7-16.2,6.5
		c0.2-1.7,0.3-3.5,0.3-5.2c0-22-17.9-39.9-39.9-39.9S24.1,42,24.1,64c0,1.7,0.1,3.5,0.3,5.2c-5.7-1.8-11.2-3.9-16.2-6.5
		c0.3-14.6,6.2-28.2,16.5-38.4C35.2,13.9,49.2,8.2,64,8.2 M64,7.2C32.8,7.2,7.5,32.3,7.2,63.4c5.7,2.9,11.9,5.3,18.5,7.3
		c-0.4-2.2-0.6-4.4-0.6-6.6c0-21.5,17.4-38.9,38.9-38.9s38.9,17.4,38.9,38.9c0,2.3-0.2,4.5-0.6,6.6c6.6-2,12.8-4.4,18.5-7.3
		C120.5,32.3,95.2,7.2,64,7.2L64,7.2z"/>
</g>
<ellipse transform="matrix(0.866 -0.5 0.5 0.866 -11.4445 51.7886)" class="st2" cx="90.9" cy="47.3" rx="2.4" ry="8.1"/>
</svg>
